<?xml version="1.0" standalone="no"?>
<!DOCTYPE svg PUBLIC "-//W3C//DTD SVG 20010904//EN"
 "http://www.w3.org/TR/2001/REC-SVG-20010904/DTD/svg10.dtd">
<svg version="1.0" xmlns="http://www.w3.org/2000/svg"
 width="512.000000pt" height="512.000000pt" viewBox="0 0 512.000000 512.000000"
 preserveAspectRatio="xMidYMid meet">
<metadata>
Created by potrace 1.16, written by Peter Selinger 2001-2019
</metadata>
<g transform="translate(0.000000,512.000000) scale(0.100000,-0.100000)"
fill="#000000" stroke="none">
<path d="M1192 4540 c-48 -30 -72 -75 -72 -140 0 -100 60 -160 160 -160 100 0
160 60 160 160 0 100 -60 160 -160 160 -37 0 -66 -6 -88 -20z"/>
<path d="M1556 4069 c-114 -143 -196 -319 -196 -421 l0 -48 84 0 83 0 6 53 c9
71 81 215 152 301 l57 68 -58 59 c-32 32 -61 59 -65 59 -3 0 -32 -32 -63 -71z"/>
<path d="M632 3980 c-48 -30 -72 -75 -72 -140 0 -100 60 -160 160 -160 100 0
160 60 160 160 0 100 -60 160 -160 160 -37 0 -66 -6 -88 -20z"/>
<path d="M4400 3580 c-217 -100 -511 -233 -653 -298 -151 -68 -275 -131 -297
-150 -21 -18 -51 -57 -65 -86 -23 -46 -26 -65 -24 -135 1 -45 0 -84 -3 -86 -3
-3 -25 2 -49 11 -121 43 -395 58 -614 34 -322 -36 -746 -137 -1113 -265 -74
-26 -136 -44 -140 -41 -3 4 -8 43 -10 89 -7 130 33 257 115 364 l35 46 -58 58
c-32 33 -61 59 -65 59 -11 0 -91 -114 -119 -171 -58 -113 -74 -183 -75 -314 0
-66 4 -138 8 -160 l8 -40 -170 -73 c-94 -41 -173 -75 -177 -75 -11 -3 -30 77
-49 206 -11 71 -18 188 -20 319 -2 202 -3 208 -29 262 -47 97 -131 146 -246
146 -82 0 -139 -22 -193 -77 -71 -71 -71 -71 -77 -441 -5 -316 -6 -334 -24
-348 -11 -8 -33 -14 -48 -14 -35 0 -95 -30 -125 -62 -67 -71 -70 -197 -11
-440 l21 -87 -37 -42 c-63 -74 -96 -152 -96 -229 0 -152 147 -408 342 -595
325 -313 823 -475 1337 -437 557 42 1060 277 1426 664 231 244 390 554 440
857 26 151 17 389 -19 526 -14 55 -26 103 -26 107 0 4 16 0 35 -8 19 -8 66
-14 109 -14 74 0 76 1 263 93 103 52 386 190 628 307 242 118 458 225 480 240
21 14 53 45 69 68 26 37 31 54 34 117 4 63 0 82 -22 132 -52 112 -124 162
-236 163 -63 0 -76 -5 -460 -180z m-3752 -486 c40 -28 44 -51 48 -248 7 -441
94 -760 275 -1007 68 -93 181 -197 279 -257 l82 -51 -43 -11 c-65 -18 -269
-57 -388 -74 -95 -14 -111 -14 -175 1 -127 29 -212 79 -294 177 -97 115 -181
348 -185 515 l-2 85 35 9 c19 4 51 12 70 17 42 11 98 62 116 107 11 25 14 103
14 335 0 177 4 318 10 340 6 20 22 46 37 58 31 24 89 26 121 4z m3068 -84 c11
0 34 -64 34 -96 0 -28 -8 -44 -34 -70 -44 -44 -59 -44 -40 1 31 76 -36 142
-112 110 -41 -17 -43 -7 -8 34 33 40 78 53 123 35 18 -8 35 -14 37 -14z m-541
-316 c98 -20 149 -51 153 -91 4 -42 -26 -99 -87 -164 l-50 -54 -1 40 c-1 79
-63 167 -142 199 -51 22 -153 20 -203 -3 -22 -10 -57 -36 -77 -59 -38 -42 -49
-71 -82 -222 -22 -101 -92 -241 -167 -335 -54 -68 -69 -81 -137 -112 -139 -64
-374 -155 -561 -219 l-184 -62 -71 19 c-237 65 -426 223 -541 453 l-45 88 62
30 c101 48 289 128 301 128 7 0 22 -17 33 -38 12 -20 36 -54 52 -75 l30 -38
66 56 66 56 -35 46 c-20 26 -34 51 -32 56 4 12 99 48 277 103 585 183 1097
256 1375 198z m-175 -244 c14 -14 20 -33 20 -62 0 -58 -25 -148 -47 -169 -18
-17 -183 -122 -183 -116 0 2 13 39 29 83 16 45 37 119 45 165 18 93 37 119 87
119 16 0 38 -9 49 -20z m-2757 -862 c14 -24 49 -70 78 -102 l54 -59 -45 7
c-25 3 -70 19 -100 34 -45 22 -56 32 -58 56 -4 29 25 106 39 106 4 0 18 -19
32 -42z"/>
<path d="M641 1842 l-84 -3 7 -44 c12 -89 88 -203 193 -290 37 -30 70 -55 75
-55 4 0 28 30 52 66 l44 66 -88 87 c-69 67 -91 96 -102 131 l-13 45 -84 -3z"/>
<path d="M1440 2000 l0 -80 80 0 80 0 0 80 0 80 -80 0 -80 0 0 -80z"/>
<path d="M160 3520 l0 -80 80 0 80 0 0 80 0 80 -80 0 -80 0 0 -80z"/>
<path d="M1040 3440 l0 -80 80 0 80 0 0 80 0 80 -80 0 -80 0 0 -80z"/>
<path d="M960 2720 l0 -80 80 0 80 0 0 80 0 80 -80 0 -80 0 0 -80z"/>
</g>
</svg>
